<svg width="40" height="40" viewBox="0 0 40 40" fill="none" xmlns="http://www.w3.org/2000/svg">
<rect width="40" height="40" rx="12" fill="url(#paint0_linear_2774_68)"/>
<path d="M17.6119 14.4215C15.139 14.4215 13.1343 16.4195 13.1343 18.8843C13.1343 20.1373 13.6524 21.2698 14.4869 22.0804C11.8415 23.2687 10 25.9199 10 29H11.9403C11.9403 25.878 14.4796 23.3471 17.6119 23.3471C20.7443 23.3471 23.2836 25.878 23.2836 29H25.2239C25.2239 25.9201 23.3824 23.2687 20.737 22.0801C21.5713 21.2698 22.0896 20.1373 22.0896 18.8843C22.0896 16.4195 20.0849 14.4215 17.6119 14.4215ZM22.3881 11C20.8191 11 19.4388 11.8042 18.6391 13.0217C19.3145 13.1383 19.9645 13.3709 20.5602 13.7089C20.7966 13.4635 21.0804 13.2683 21.3946 13.1351C21.7087 13.0019 22.0467 12.9335 22.3881 12.9339C23.7894 12.9339 24.9254 14.0661 24.9254 15.4628C24.9254 16.4724 24.3318 17.3437 23.4736 17.7493C23.5448 18.1167 23.5821 18.496 23.5821 18.8843C23.5821 19.2758 23.5442 19.6584 23.4716 20.0289C26.0858 20.5326 28.0597 22.8259 28.0597 25.5785H30C30 22.4986 28.1585 19.8472 25.5131 18.6586C26.3475 17.8483 26.8657 16.7158 26.8657 15.4628C26.8657 12.998 24.861 11 22.3881 11ZM17.6119 16.3554C19.0133 16.3554 20.1493 17.4876 20.1493 18.8843C20.1493 20.281 19.0133 21.4132 17.6119 21.4132C16.2106 21.4132 15.0746 20.281 15.0746 18.8843C15.0746 17.4876 16.2106 16.3554 17.6119 16.3554Z" fill="white"/>
<defs>
<linearGradient id="paint0_linear_2774_68" x1="1.55172" y1="0.924855" x2="21.5924" y2="47.4788" gradientUnits="userSpaceOnUse">
<stop stop-color="#EE3BA7"/>
<stop offset="1" stop-color="#B448FB"/>
</linearGradient>
</defs>
</svg>
