<svg width="40" height="40" viewBox="0 0 40 40" fill="none" xmlns="http://www.w3.org/2000/svg">
<rect width="40" height="40" rx="12" fill="url(#paint0_linear_2761_656)"/>
<path d="M20 11C17.0761 11 14.7059 13.4669 14.7059 16.5102C14.7059 18.0573 15.3184 19.4556 16.3051 20.4564C13.1773 21.9236 11 25.197 11 29H13.2941C13.2941 25.1452 16.2964 22.0204 20 22.0204C23.7036 22.0204 26.7059 25.1452 26.7059 29H29C29 25.1972 26.8227 21.9236 23.6949 20.4561C24.6814 19.4556 25.2941 18.0573 25.2941 16.5102C25.2941 13.4669 22.9239 11 20 11ZM20 13.3878C21.6569 13.3878 23 14.7857 23 16.5102C23 18.2347 21.6569 19.6327 20 19.6327C18.3431 19.6327 17 18.2347 17 16.5102C17 14.7857 18.3431 13.3878 20 13.3878Z" fill="white"/>
<defs>
<linearGradient id="paint0_linear_2761_656" x1="1.55172" y1="0.924855" x2="21.5924" y2="47.4788" gradientUnits="userSpaceOnUse">
<stop stop-color="#EE3BA7"/>
<stop offset="1" stop-color="#B448FB"/>
</linearGradient>
</defs>
</svg>
