<svg width="40" height="40" viewBox="0 0 40 40" fill="none" xmlns="http://www.w3.org/2000/svg">
<rect width="40" height="40" rx="12" fill="url(#paint0_linear_2761_664)"/>
<path d="M18.8158 23.6832C18.5721 23.6832 18.326 23.5895 18.1408 23.4043L15.0236 20.2871C14.651 19.9145 14.651 19.3098 15.0236 18.9371C15.3963 18.5645 16.001 18.5645 16.3736 18.9371L18.8158 21.3793L23.6158 16.5793C23.9885 16.2066 24.5932 16.2066 24.9658 16.5793C25.3385 16.952 25.3385 17.5566 24.9658 17.9293L19.4908 23.4043C19.3033 23.5895 19.0596 23.6832 18.8158 23.6832Z" fill="white"/>
<path d="M20 30.5C14.2109 30.5 9.5 25.7891 9.5 20C9.5 14.2109 14.2109 9.5 20 9.5C25.7891 9.5 30.5 14.2109 30.5 20C30.5 25.7891 25.7891 30.5 20 30.5ZM20 11.4102C15.2633 11.4102 11.4102 15.2633 11.4102 20C11.4102 24.7367 15.2633 28.5898 20 28.5898C24.7367 28.5898 28.5898 24.7367 28.5898 20C28.5898 15.2633 24.7367 11.4102 20 11.4102Z" fill="white"/>
<defs>
<linearGradient id="paint0_linear_2761_664" x1="1.55172" y1="0.924855" x2="21.5924" y2="47.4788" gradientUnits="userSpaceOnUse">
<stop stop-color="#00C855"/>
<stop offset="1" stop-color="#00BD78"/>
</linearGradient>
</defs>
</svg>
