<svg width="40" height="40" viewBox="0 0 40 40" fill="none" xmlns="http://www.w3.org/2000/svg">
<rect width="40" height="40" rx="12" fill="url(#paint0_linear_2778_266)"/>
<g clip-path="url(#clip0_2778_266)">
<path d="M8.72112 18.0606C15.4364 15.1348 19.9132 13.2059 22.1516 12.2738C28.5502 9.61437 29.8781 9.15014 30.7454 9.13574C30.9361 9.13574 31.3608 9.17893 31.6379 9.40205C31.8682 9.59278 31.933 9.84829 31.9654 10.0246C31.9942 10.2046 32.0338 10.6112 32.0014 10.9315C31.6559 14.5734 30.1552 23.4119 29.3923 27.4893C29.072 29.2167 28.435 29.7925 27.8196 29.8501C26.4809 29.9724 25.4661 28.9648 24.1705 28.1155C22.1444 26.7876 21 25.9599 19.0315 24.6643C16.7571 23.1672 18.2326 22.3431 19.5281 20.9972C19.8664 20.6445 25.7612 15.286 25.8727 14.8002C25.8871 14.739 25.9015 14.5123 25.7647 14.3935C25.6316 14.2747 25.4337 14.3143 25.2897 14.3467C25.0846 14.3935 21.8493 16.5348 15.5731 20.7669C14.6554 21.3967 13.8241 21.7061 13.0756 21.6881C12.2551 21.6702 10.6716 21.2239 9.49485 20.8424C8.05535 20.3746 6.90735 20.1299 7.00812 19.331C7.0585 18.9171 7.6307 18.4925 8.72112 18.057V18.0606Z" fill="white"/>
</g>
<defs>
<linearGradient id="paint0_linear_2778_266" x1="1.55172" y1="0.924855" x2="21.5924" y2="47.4788" gradientUnits="userSpaceOnUse">
<stop stop-color="#1688EE"/>
<stop offset="1" stop-color="#00B6DD"/>
</linearGradient>
<clipPath id="clip0_2778_266">
<rect width="25" height="25" fill="white" transform="translate(7 7)"/>
</clipPath>
</defs>
</svg>
