<svg width="40" height="40" viewBox="0 0 40 40" fill="none" xmlns="http://www.w3.org/2000/svg">
<rect width="40" height="40" rx="12" fill="url(#paint0_linear_2761_674)"/>
<path d="M27.9638 15.8389C27.9638 15.6528 27.9602 15.4689 27.9519 15.2863C28.7538 14.6938 29.4497 13.9521 30 13.1033C29.2526 13.4368 28.4574 13.6525 27.6429 13.7427C28.4906 13.2255 29.1407 12.3983 29.4479 11.4056C28.6542 11.8829 27.7762 12.2241 26.8427 12.4019C26.0947 11.558 25.0274 11.0205 23.8474 11.0005C21.5812 10.9634 19.7442 12.8622 19.7442 15.2412C19.7442 15.5793 19.7798 15.9073 19.8506 16.2239C16.4381 16.0062 13.4141 14.2449 11.3913 11.5898C11.0383 12.2259 10.8358 12.9693 10.8358 13.7661C10.8358 15.273 11.5603 16.6123 12.661 17.4026C11.9871 17.3724 11.3559 17.17 10.8023 16.8383V16.8936C10.8023 18.9997 12.2171 20.7643 14.0945 21.176C13.7503 21.2731 13.3873 21.3236 13.0139 21.3218C12.7545 21.3204 12.496 21.2924 12.2424 21.238C12.7641 22.9639 14.2802 24.2248 16.0751 24.2668C14.6703 25.4217 12.9008 26.1116 10.9795 26.1068C10.6483 26.1068 10.3209 26.0847 10 26.0448C11.8166 27.2804 13.973 28 16.2911 28C23.8371 28.0018 27.9638 21.4893 27.9638 15.8389Z" fill="white"/>
<defs>
<linearGradient id="paint0_linear_2761_674" x1="1.55172" y1="0.924855" x2="21.5924" y2="47.4788" gradientUnits="userSpaceOnUse">
<stop stop-color="#1688EE"/>
<stop offset="1" stop-color="#00B6DD"/>
</linearGradient>
</defs>
</svg>
