<svg width="1697" height="134" viewBox="0 0 1697 134" fill="none" xmlns="http://www.w3.org/2000/svg">
    <rect x="725.422" y="4.97314" width="13.4372" height="126.693" rx="6.71858" transform="rotate(90 725.422 4.97314)"
        fill="#D9D9D9" />
    <rect width="13.4372" height="126.693" rx="6.71858"
        transform="matrix(-7.39731e-08 -1 -1 2.58295e-08 725.422 131.891)" fill="#D9D9D9" />
    <rect x="725.422" y="60.6411" width="13.4372" height="126.693" rx="6.71858" transform="rotate(90 725.422 60.6411)"
        fill="#D9D9D9" />
    <rect x="725.422" y="33.7671" width="13.4372" height="97.8993" rx="6.71858" transform="rotate(90 725.422 33.7671)"
        fill="#D9D9D9" />
    <rect x="725.422" y="87.9805" width="13.4372" height="97.8993" rx="6.71858" transform="rotate(90 725.422 87.9805)"
        fill="#D9D9D9" />
    <rect x="598.729" y="5.19824" width="13.4372" height="126.693" rx="6.71858" fill="#D9D9D9" />
    <rect width="15.3567" height="42.2311" rx="7.67837" transform="matrix(1 0 0 -1 710.065 131.666)" fill="#D9D9D9" />
    <rect x="710.065" y="5.43799" width="15.3567" height="40.3115" rx="7.67837" fill="#D9D9D9" />
    <rect x="1570.45" y="4.97314" width="13.4372" height="126.693" rx="6.71858" transform="rotate(90 1570.45 4.97314)"
        fill="#D9D9D9" />
    <rect width="13.4372" height="126.693" rx="6.71858"
        transform="matrix(-7.39731e-08 -1 -1 2.58295e-08 1570.45 131.891)" fill="#D9D9D9" />
    <rect x="1570.45" y="60.6411" width="13.4372" height="126.693" rx="6.71858" transform="rotate(90 1570.45 60.6411)"
        fill="#D9D9D9" />
    <rect x="1570.45" y="33.7671" width="13.4372" height="97.8993" rx="6.71858" transform="rotate(90 1570.45 33.7671)"
        fill="#D9D9D9" />
    <rect x="1570.45" y="87.9805" width="13.4372" height="97.8993" rx="6.71858" transform="rotate(90 1570.45 87.9805)"
        fill="#D9D9D9" />
    <rect x="1443.76" y="5.19824" width="13.4372" height="126.693" rx="6.71858" fill="#D9D9D9" />
    <rect width="15.3567" height="42.2311" rx="7.67837" transform="matrix(1 0 0 -1 1555.1 131.666)" fill="#D9D9D9" />
    <rect x="1555.1" y="5.43799" width="15.3567" height="40.3115" rx="7.67837" fill="#D9D9D9" />
    <rect width="12.6521" height="148.806" rx="6.32607"
        transform="matrix(0.549714 0.835353 0.835353 -0.549714 744.743 103.261)" fill="#D9D9D9" />
    <rect x="796.896" y="50.9819" width="13.4372" height="53.7486" rx="6.71858"
        transform="rotate(123.35 796.896 50.9819)" fill="#D9D9D9" />
    <rect x="876.116" y="103.71" width="13.4372" height="53.7486" rx="6.71858" transform="rotate(123.35 876.116 103.71)"
        fill="#D9D9D9" />
    <path d="M853.694 121.827L813.936 93.3523C811.94 91.9226 809.257 91.9159 807.253 93.3357L767.052 121.827"
        stroke="#D9D9D9" stroke-width="11.5176" stroke-linecap="round" />
    <path d="M853.694 12.6502L813.936 41.1247C811.94 42.5545 809.257 42.5611 807.253 41.1413L767.052 12.6502"
        stroke="#D9D9D9" stroke-width="11.5176" stroke-linecap="round" />
    <rect x="895.319" y="3.05566" width="13.4372" height="126.693" rx="6.71858" fill="#D9D9D9" />
    <rect x="917.995" y="26.6606" width="13.4372" height="103.088" rx="6.71858" fill="#D9D9D9" />
    <path
        d="M943.77 40.687H974.451C979.375 40.6871 983.366 44.6783 983.366 49.6021C983.366 54.5259 979.375 58.518 974.451 58.5181H943.77V71.9546H974.451C986.796 71.9545 996.804 61.947 996.804 49.6021C996.804 37.2571 986.796 27.2496 974.451 27.2495H943.77V40.687Z"
        fill="#D9D9D9" />
    <path
        d="M974.686 3.29346C999.632 3.29346 1019.86 23.5176 1019.86 48.4644L1019.84 49.6294C1019.22 74.0377 999.243 93.6343 974.686 93.6343H943.768V80.1968H974.686C992.211 80.1968 1006.42 65.9899 1006.42 48.4644C1006.42 30.9387 992.211 16.731 974.686 16.731H903.33C903.031 16.731 902.733 16.7354 902.436 16.7437V3.3042L903.33 3.29346H974.686ZM902.437 80.1841V93.6235H902.436V80.1841H902.437Z"
        fill="#D9D9D9" />
    <path
        d="M1104.46 81.661H1146.49C1149.67 81.661 1152.25 84.2392 1152.25 87.4197V113.274C1152.25 116.454 1149.67 119.032 1146.49 119.032H1067.45C1064.27 119.032 1061.69 116.454 1061.69 113.274V24.1721M1133.92 102.693H1089.73C1086.55 102.693 1083.97 100.114 1083.97 96.9339V12.6489C1083.97 9.46844 1081.39 6.89014 1078.21 6.89014H1044.81C1041.63 6.89014 1039.05 9.46843 1039.05 12.6489V122.138"
        stroke="#D9D9D9" stroke-width="11.5176" stroke-linecap="round" />
    <circle cx="1234.79" cy="68.3197" r="56.628" stroke="#D9D9D9" stroke-width="13.4372" />
    <circle cx="1234.79" cy="68.3198" r="35.0026" stroke="#D9D9D9" stroke-width="13.4372" />
    <rect x="1317.33" y="27.5889" width="11.4126" height="103.088" rx="5.70629" fill="#D9D9D9" />
    <rect x="1339.84" y="63.9268" width="11.4126" height="66.7509" rx="5.70629" fill="#D9D9D9" />
    <path
        d="M1343.62 33.4215H1363.14C1368.27 33.4215 1370.84 39.6245 1367.21 43.2524L1332.87 77.5911C1329.24 81.2189 1323.04 78.6496 1323.04 73.5191V16.4917C1323.04 13.3112 1325.62 10.7329 1328.8 10.7329H1397.51C1399.83 10.7329 1401.93 12.131 1402.83 14.2773L1409.44 30.165C1410.28 32.1634 1409.92 34.4599 1408.52 36.1093L1367.73 84.0856C1366.06 86.0572 1365.9 88.9047 1367.35 91.0467L1390.45 125.128C1391.53 126.709 1393.31 127.656 1395.22 127.656H1412.85C1417.63 127.656 1420.33 122.164 1417.41 118.379L1393.52 87.422"
        stroke="#D9D9D9" stroke-width="11.5176" stroke-linecap="round" />
    <rect x="1589.65" y="27.5894" width="11.4126" height="103.088" rx="5.70629" fill="#D9D9D9" />
    <rect x="1612.16" y="63.9268" width="11.4126" height="66.7509" rx="5.70629" fill="#D9D9D9" />
    <path
        d="M1615.94 33.4215H1635.46C1640.59 33.4215 1643.16 39.6245 1639.53 43.2524L1605.19 77.5911C1601.56 81.2189 1595.36 78.6496 1595.36 73.5191V16.4917C1595.36 13.3112 1597.94 10.7329 1601.12 10.7329H1669.83C1672.15 10.7329 1674.25 12.131 1675.14 14.2773L1681.76 30.165C1682.59 32.1634 1682.24 34.4599 1680.83 36.1093L1640.05 84.0856C1638.37 86.0572 1638.22 88.9047 1639.67 91.0467L1662.77 125.128C1663.84 126.709 1665.63 127.656 1667.54 127.656H1685.17C1689.95 127.656 1692.65 122.164 1689.73 118.379L1665.84 87.422"
        stroke="#D9D9D9" stroke-width="11.5176" stroke-linecap="round" />
    <rect x="0.728516" y="3.10742" width="13.8921" height="125.802" rx="6.94606" fill="#D9D9D9" />
    <rect x="38.4355" y="3.10742" width="13.8921" height="125.802" rx="6.94606" fill="#D9D9D9" />
    <rect x="52.3301" y="115.569" width="13.3426" height="51.5993" rx="6.67132" transform="rotate(90 52.3301 115.569)"
        fill="#D9D9D9" />
    <rect width="12.9306" height="148.572" rx="6.4653"
        transform="matrix(-0.850022 0.526746 -0.557633 -0.830088 131.014 123.516)" fill="#D9D9D9" />
    <rect width="13.7271" height="75.8436" rx="5.95376"
        transform="matrix(-0.843982 0.536372 -0.567338 -0.823485 92.7793 120.582)" fill="#D9D9D9" />
    <rect x="117.822" y="2.47705" width="13.8921" height="125.802" rx="6.94606" fill="#D9D9D9" />
    <rect x="80.1152" y="3.10742" width="13.8921" height="70.5254" rx="6.94606" fill="#D9D9D9" />
    <rect width="12.6521" height="132.155" rx="6.32607"
        transform="matrix(0.889772 0.456405 0.456405 -0.889772 326.566 121.194)" fill="#D9D9D9" />
    <rect width="12.6521" height="101.797" rx="6.32607"
        transform="matrix(0.889772 0.456405 0.456405 -0.889772 310.167 94.1846)" fill="#D9D9D9" />
    <rect x="326.799" y="94.8442" width="12.6521" height="102.561" rx="6.32607"
        transform="rotate(152.845 326.799 94.8442)" fill="#D9D9D9" />
    <rect x="340.753" y="63.0356" width="12.6521" height="69.5228" rx="6.32607"
        transform="rotate(152.845 340.753 63.0356)" fill="#D9D9D9" />
    <rect x="396.166" y="4.36816" width="13.4372" height="41.9536" rx="6.71858" transform="rotate(90 396.166 4.36816)"
        fill="#D9D9D9" />
    <circle cx="210.073" cy="64.5331" r="56.628" stroke="#D9D9D9" stroke-width="13.4372" />
    <circle cx="210.074" cy="64.5332" r="35.0026" stroke="#D9D9D9" stroke-width="13.4372" />
    <rect width="12.6521" height="132.155" rx="6.32607"
        transform="matrix(-0.867045 -0.498229 -0.498229 0.867045 439.545 9.41992)" fill="#D9D9D9" />
    <rect width="12.6521" height="34.9028" rx="6.32607"
        transform="matrix(-0.867071 -0.498185 -0.498185 0.867071 421.982 94.0918)" fill="#D9D9D9" />
    <rect x="408.729" y="101.705" width="12.6521" height="34.9028" rx="6.32607" transform="rotate(-90 408.729 101.705)"
        fill="#D9D9D9" />
    <rect x="80.7285" y="15.0527" width="13" height="51" rx="6.5" transform="rotate(-90 80.7285 15.0527)"
        fill="#D9D9D9" />
    <rect x="421.314" y="67.3105" width="12.6521" height="67.5817" rx="6.32607"
        transform="rotate(-29.88 421.314 67.3105)" fill="#D9D9D9" />
    <rect x="438.014" y="41.6465" width="12.6521" height="97.1793" rx="6.32607"
        transform="rotate(-29.88 438.014 41.6465)" fill="#D9D9D9" />
    <rect width="12.6521" height="41.2593" rx="6.32607"
        transform="matrix(-0.867071 -0.498185 -0.498185 0.867071 453.514 41.0449)" fill="#D9D9D9" />
    <rect x="363.779" y="124.475" width="13.4372" height="43.7157" rx="6.71858" transform="rotate(-90 363.779 124.475)"
        fill="#D9D9D9" />
</svg>